<svg xmlns="http://www.w3.org/2000/svg" viewBox="0 0 2048 2048" role="img" aria-label="Tea, notebook, pen, and leafy vase illustration">
  <defs>
    <linearGradient id="page" x1="0" y1="0" x2="1" y2="1"><stop stop-color="#fffaf1"/><stop offset="1" stop-color="#eadac5"/></linearGradient>
    <linearGradient id="ceramic" x1="0" y1="0" x2="1" y2="1"><stop stop-color="#f5e5d2"/><stop offset="1" stop-color="#c99c77"/></linearGradient>
    <linearGradient id="vase" x1="0" y1="0" x2="1" y2="1"><stop stop-color="#fff8eb" stop-opacity=".9"/><stop offset="1" stop-color="#c9b59e" stop-opacity=".72"/></linearGradient>
  </defs>
  <path d="M200 1580c390-230 1265-218 1664 8-350 260-1305 272-1664-8Z" fill="#cfb08e" opacity=".12"/>
  <g transform="rotate(8 1110 1260)">
    <rect x="735" y="866" width="810" height="610" rx="42" fill="#9d7659" opacity=".22"/>
    <rect x="700" y="825" width="810" height="610" rx="42" fill="url(#page)" stroke="#cba989" stroke-width="18"/>
    <path d="M820 976h560M820 1065h560M820 1154h560M820 1243h430" stroke="#cbb297" stroke-width="11" opacity=".65"/>
    <path d="M1238 941c58-56 139 18 85 83-40 48-99 78-99 78s-59-30-99-78c-54-65 27-139 85-83l14 17Z" fill="#dc8c6e" opacity=".78"/>
  </g>
  <g transform="translate(180 750)">
    <ellipse cx="360" cy="720" rx="295" ry="80" fill="#7b5a43" opacity=".12"/>
    <path d="M130 240h420l-35 380c-11 116-328 116-339 0z" fill="url(#ceramic)" stroke="#a97c5e" stroke-width="18"/>
    <ellipse cx="339" cy="245" rx="210" ry="62" fill="#f3ddc4" stroke="#a97c5e" stroke-width="18"/>
    <ellipse cx="339" cy="247" rx="166" ry="42" fill="#73503b"/>
    <path d="M543 330c171-20 187 230 22 237" fill="none" stroke="#b88b6b" stroke-width="56"/>
  </g>
  <g transform="translate(1420 280)">
    <path d="M95 560c-10 140-58 222-58 382 0 194 354 194 354 0 0-160-48-242-58-382z" fill="url(#vase)" stroke="#b59e82" stroke-width="18"/>
    <path d="M139 585h150" stroke="#aa9073" stroke-width="24"/>
    <g fill="none" stroke="#758269" stroke-linecap="round" stroke-width="18">
      <path d="M214 576 85 74M214 576l55-548M214 576l217-360"/>
    </g>
    <g fill="#98a184">
      <ellipse cx="74" cy="133" rx="43" ry="82" transform="rotate(-32 74 133)"/>
      <ellipse cx="134" cy="264" rx="41" ry="78" transform="rotate(34 134 264)"/>
      <ellipse cx="269" cy="91" rx="40" ry="79" transform="rotate(23 269 91)"/>
      <ellipse cx="278" cy="247" rx="41" ry="80" transform="rotate(-28 278 247)"/>
      <ellipse cx="416" cy="247" rx="43" ry="82" transform="rotate(43 416 247)"/>
      <ellipse cx="347" cy="364" rx="39" ry="74" transform="rotate(-43 347 364)"/>
    </g>
  </g>
  <g transform="rotate(-15 1510 1610)">
    <rect x="1210" y="1570" width="630" height="48" rx="24" fill="#5e4a3d"/>
    <path d="m1840 1570 118 24-118 24z" fill="#c08f6b"/>
    <rect x="1275" y="1578" width="340" height="9" rx="5" fill="#fff5e8" opacity=".45"/>
  </g>
</svg>
