<svg xmlns="http://www.w3.org/2000/svg" viewBox="0 0 2048 2048" role="img" aria-label="Checklist, coffee, pen, and leaves illustration">
  <defs>
    <linearGradient id="board" x1="0" y1="0" x2="1" y2="1"><stop stop-color="#bc8b63"/><stop offset="1" stop-color="#8d6045"/></linearGradient>
    <linearGradient id="sheet" x1="0" y1="0" x2="1" y2="1"><stop stop-color="#fffaf0"/><stop offset="1" stop-color="#ead9c3"/></linearGradient>
  </defs>
  <ellipse cx="1024" cy="1630" rx="800" ry="190" fill="#7b5942" opacity=".12"/>
  <g transform="rotate(-3 1040 1050)">
    <rect x="620" y="430" width="850" height="1120" rx="54" fill="url(#board)"/>
    <rect x="690" y="545" width="710" height="900" rx="26" fill="url(#sheet)" stroke="#d0b090" stroke-width="16"/>
    <rect x="860" y="350" width="370" height="180" rx="70" fill="#a97955"/>
    <rect x="945" y="310" width="200" height="115" rx="45" fill="#806047"/>
    <g fill="none" stroke-linecap="round" stroke-linejoin="round">
      <path d="m785 735 38 38 72-92M785 925l38 38 72-92M785 1115l38 38 72-92" stroke="#d97755" stroke-width="28"/>
      <path d="M965 730h320M965 920h320M965 1110h320M785 1290h500" stroke="#b8a087" stroke-width="18"/>
    </g>
  </g>
  <g transform="translate(150 890)">
    <path d="M85 190h360l-30 330c-10 100-280 100-290 0z" fill="#cfaa87" stroke="#967057" stroke-width="18"/>
    <ellipse cx="265" cy="194" rx="180" ry="54" fill="#f0d7bc" stroke="#967057" stroke-width="18"/>
    <ellipse cx="265" cy="195" rx="140" ry="36" fill="#704b37"/>
    <path d="M439 270c145-14 160 191 19 202" fill="none" stroke="#aa8266" stroke-width="48"/>
  </g>
  <g fill="none" stroke="#758267" stroke-linecap="round" stroke-width="18">
    <path d="M1470 1200 1700 515M1510 1070l390-330"/>
  </g>
  <g fill="#9ca487">
    <ellipse cx="1674" cy="610" rx="45" ry="90" transform="rotate(22 1674 610)"/>
    <ellipse cx="1598" cy="790" rx="43" ry="85" transform="rotate(-35 1598 790)"/>
    <ellipse cx="1775" cy="795" rx="44" ry="88" transform="rotate(42 1775 795)"/>
    <ellipse cx="1518" cy="1000" rx="42" ry="84" transform="rotate(-40 1518 1000)"/>
  </g>
  <g transform="rotate(-22 1570 1450)">
    <rect x="1310" y="1410" width="580" height="42" rx="21" fill="#5f4b3e"/>
    <path d="m1890 1410 105 21-105 21z" fill="#c18f6b"/>
  </g>
</svg>
